<?xml version="1.0" encoding="UTF-8"?>
<svg width="18px" height="17px" viewBox="0 0 18 17" version="1.1" xmlns="http://www.w3.org/2000/svg" xmlns:xlink="http://www.w3.org/1999/xlink">
    <!-- Generator: sketchtool 55.1 (78136) - https://sketchapp.com -->
    <title>C434BB5D-87F6-4AC6-B54A-2A96B98DE240</title>
    <desc>Created with sketchtool.</desc>
    <g id="📜-Landing-page" stroke="none" stroke-width="1" fill="none" fill-rule="evenodd">
        <g id="landing-page" transform="translate(-1104.000000, -8181.000000)" fill="#2C0FEF" fill-rule="nonzero">
            <g id="Group-13" transform="translate(405.000000, 6667.000000)">
                <g id="view-more-button" transform="translate(357.000000, 1484.000000)">
                    <g id="button" transform="translate(34.000000, 25.000000)">
                        <g id="Group">
                            <path d="M322.300812,12.2868308 L317.455285,6.93039046 C317.040181,6.47151704 317.067185,5.7551698 317.5156,5.33038412 C317.964016,4.90559844 318.664037,4.93323201 319.079142,5.39210543 L325.644669,12.6499051 C326.037316,13.0839526 326.037316,13.7541426 325.644669,14.1881901 L319.079142,21.4459898 C318.664037,21.9048632 317.964016,21.9324968 317.5156,21.5077111 C317.067185,21.0829254 317.040181,20.3665782 317.455285,19.9077048 L322.300812,14.5512644 L309.134783,14.5512644 C308.523728,14.5512644 308.02837,14.0443537 308.02837,13.4190476 C308.02837,12.7937415 308.523728,12.2868308 309.134783,12.2868308 L322.300812,12.2868308 Z" id="Combined-Shape"></path>
                        </g>
                    </g>
                </g>
            </g>
        </g>
    </g>
</svg>