<?xml version="1.0" encoding="UTF-8"?>
<svg width="20px" height="27px" viewBox="0 0 20 27" version="1.1" xmlns="http://www.w3.org/2000/svg" xmlns:xlink="http://www.w3.org/1999/xlink">
    <!-- Generator: sketchtool 55.1 (78136) - https://sketchapp.com -->
    <title>69BF3B38-8390-4665-A92F-B404A8752775</title>
    <desc>Created with sketchtool.</desc>
    <g id="📜-Landing-page" stroke="none" stroke-width="1" fill="none" fill-rule="evenodd">
        <g id="landing-page" transform="translate(-910.000000, -5069.000000)" fill="#393649" fill-rule="nonzero">
            <g id="detailed-results" transform="translate(910.000000, 5069.000000)">
                <path d="M14.9558333,5.1046875 L14.9558333,4.38075 C14.9558333,3.7715625 14.4691667,3.2788125 13.8666667,3.2788125 L12.2608333,3.2788125 C12.4133333,2.96409375 12.5,2.6240625 12.5,2.2595625 C12.5,1.015875 11.5016667,0 10.2733333,0 C9.04583333,0 8.04666667,1.0175625 8.04666667,2.26209375 C8.04666667,2.6274375 8.13333333,2.9649375 8.28583333,3.27965625 L6.13416667,3.27965625 C5.5325,3.27965625 5.04583333,3.77240625 5.04583333,4.38159375 L5.04583333,5.1046875 L2.30416667,5.1046875 C1.33,5.1046875 0.539166667,5.9045625 0.539166667,6.89090625 L0.539166667,25.2129375 C0.539166667,26.200125 1.32916667,27 2.30416667,27 L17.6975,27 C18.6725,27 19.4616667,26.200125 19.4616667,25.2129375 L19.4616667,6.89090625 C19.4616667,5.9045625 18.6708333,5.1046875 17.6975,5.1046875 L14.9558333,5.1046875 Z M8.94666667,2.26040625 C8.94666667,1.51875 9.5425,0.91125 10.2733333,0.91125 C11.0041667,0.91125 11.6,1.51959375 11.6,2.26209375 C11.6,2.66709375 11.4225,3.034125 11.1441667,3.27965625 L9.40333333,3.27965625 C9.12333333,3.034125 8.94666667,2.66540625 8.94666667,2.26040625 Z M17.6591667,24.2476875 C17.6591667,24.759 17.2491667,25.1758125 16.7433333,25.1758125 L3.2575,25.1758125 C2.75166667,25.1758125 2.34166667,24.7606875 2.34166667,24.2476875 L2.34166667,7.85615625 C2.34166667,7.344 2.75166667,6.928875 3.2575,6.928875 L5.045,6.928875 C5.045,7.43259375 5.44833333,7.84096875 5.94583333,7.84096875 L14.0541667,7.84096875 C14.5525,7.84096875 14.9558333,7.43259375 14.9558333,6.928875 L16.7441667,6.928875 C17.2491667,6.928875 17.66,7.34315625 17.66,7.85615625 L17.66,24.2476875 L17.6591667,24.2476875 Z" id="Shape"></path>
                <path d="M9.275,16.513875 L8.17666667,15.400125 C8.05333333,15.27525 7.885,15.204375 7.71,15.204375 C7.535,15.204375 7.3675,15.27525 7.24333333,15.400125 L6.9025,15.7452187 C6.645,16.0059375 6.645,16.4286562 6.9025,16.689375 L8.83166667,18.6443437 C8.9575,18.7709062 9.13,18.8417813 9.3075,18.8384062 C9.48583333,18.835875 9.65583333,18.7607813 9.77833333,18.6291562 L13.1291667,15.0314062 C13.3791667,14.7639375 13.3675,14.3420625 13.1025,14.0880938 L12.7525,13.7539688 C12.6258333,13.631625 12.4566667,13.5666562 12.2808333,13.5717187 C12.1066667,13.5767812 11.9408333,13.6527187 11.82,13.7809687 L9.275,16.513875 Z" id="Path"></path>
                <path d="M10,9.19940625 C6.37,9.19940625 3.4175,12.1930312 3.4175,15.8734687 C3.4175,19.551375 6.37,22.5458437 10,22.5458437 C13.6291667,22.5458437 16.5833333,19.551375 16.5833333,15.8734687 C16.5833333,12.1930312 13.6308333,9.19940625 10,9.19940625 Z M10,20.7233438 C7.3625,20.7233438 5.2175,18.5481563 5.2175,15.8734688 C5.2175,13.1987812 7.3625,11.02275 10,11.02275 C12.6366667,11.02275 14.7833333,13.1979375 14.7833333,15.8734688 C14.7833333,18.5473125 12.6366667,20.7233438 10,20.7233438 Z" id="Shape"></path>
            </g>
        </g>
    </g>
</svg>