<?xml version="1.0" encoding="UTF-8"?>
<svg width="21px" height="27px" viewBox="0 0 21 27" version="1.1" xmlns="http://www.w3.org/2000/svg" xmlns:xlink="http://www.w3.org/1999/xlink">
    <!-- Generator: sketchtool 55.1 (78136) - https://sketchapp.com -->
    <title>524B248C-9A59-4B91-B5BB-73E924BB243E</title>
    <desc>Created with sketchtool.</desc>
    <g id="📜-Landing-page" stroke="none" stroke-width="1" fill="none" fill-rule="evenodd">
        <g id="landing-page" transform="translate(-349.000000, -4588.000000)" fill="#393649" fill-rule="nonzero">
            <g id="online-markers" transform="translate(349.000000, 4588.000000)">
                <path d="M9.878625,10.3730625 C9.5495625,10.044 9.014625,10.0423125 8.683875,10.371375 L5.90625,13.1506875 L4.816125,12.058875 C4.4870625,11.7298125 3.952125,11.7298125 3.6230625,12.058875 C3.294,12.3879375 3.294,12.922875 3.6230625,13.2519375 L5.3105625,14.9394375 C5.47425,15.1048125 5.69025,15.1875 5.90625,15.1875 C6.12225,15.1875 6.33825,15.1048125 6.503625,14.941125 L9.878625,11.566125 C10.2076875,11.2370625 10.2076875,10.702125 9.878625,10.3730625 Z" id="Path"></path>
                <path d="M9.878625,17.1230625 C9.5495625,16.794 9.014625,16.7923125 8.683875,17.121375 L5.90625,19.9006875 L4.816125,18.8105625 C4.4870625,18.4815 3.952125,18.4815 3.6230625,18.8105625 C3.294,19.139625 3.294,19.6745625 3.6230625,20.003625 L5.3105625,21.691125 C5.47425,21.8548125 5.69025,21.9375 5.90625,21.9375 C6.12225,21.9375 6.33825,21.8548125 6.503625,21.691125 L9.878625,18.316125 C10.2076875,17.9870625 10.2076875,17.452125 9.878625,17.1230625 Z" id="Path"></path>
                <path d="M16.03125,11.8125 L12.65625,11.8125 C12.1905,11.8125 11.8125,12.1905 11.8125,12.65625 C11.8125,13.122 12.1905,13.5 12.65625,13.5 L16.03125,13.5 C16.497,13.5 16.875,13.122 16.875,12.65625 C16.875,12.1905 16.497,11.8125 16.03125,11.8125 Z" id="Path"></path>
                <path d="M16.03125,18.5625 L12.65625,18.5625 C12.1905,18.5625 11.8125,18.9405 11.8125,19.40625 C11.8125,19.872 12.1905,20.25 12.65625,20.25 L16.03125,20.25 C16.497,20.25 16.875,19.872 16.875,19.40625 C16.875,18.9405 16.497,18.5625 16.03125,18.5625 Z" id="Path"></path>
                <path d="M18.5625,3.375 L15.1875,3.375 L15.1875,2.53125 C15.1875,2.0655 14.8095,1.6875 14.34375,1.6875 L12.5128125,1.6875 C12.1635,0.705375 11.22525,0 10.125,0 C9.02475,0 8.0865,0.705375 7.7371875,1.6875 L5.90625,1.6875 C5.4405,1.6875 5.0625,2.0655 5.0625,2.53125 L5.0625,3.375 L1.6875,3.375 C0.7576875,3.375 0,4.1326875 0,5.0625 L0,25.3125 C0,26.2423125 0.7576875,27 1.6875,27 L18.5625,27 C19.4923125,27 20.25,26.2423125 20.25,25.3125 L20.25,5.0625 C20.25,4.1326875 19.4923125,3.375 18.5625,3.375 Z M6.75,3.375 L8.4375,3.375 C8.90325,3.375 9.28125,2.997 9.28125,2.53125 C9.28125,2.0655 9.65925,1.6875 10.125,1.6875 C10.59075,1.6875 10.96875,2.0655 10.96875,2.53125 C10.96875,2.997 11.34675,3.375 11.8125,3.375 L13.5,3.375 L13.5,5.0625 L6.75,5.0625 L6.75,3.375 Z M18.5625,25.3125 L1.6875,25.3125 L1.6875,5.0625 L5.0625,5.0625 L5.0625,5.90625 C5.0625,6.372 5.4405,6.75 5.90625,6.75 L14.34375,6.75 C14.8095,6.75 15.1875,6.372 15.1875,5.90625 L15.1875,5.0625 L18.5625,5.0625 L18.5625,25.3125 Z" id="Shape"></path>
            </g>
        </g>
    </g>
</svg>