<?xml version="1.0" encoding="UTF-8"?>
<svg width="404px" height="293px" viewBox="0 0 404 293" version="1.1" xmlns="http://www.w3.org/2000/svg" xmlns:xlink="http://www.w3.org/1999/xlink">
    <!-- Generator: sketchtool 55.1 (78136) - https://sketchapp.com -->
    <title>2A8ED4A6-2063-43F5-9D38-FE055F9FA2AA</title>
    <desc>Created with sketchtool.</desc>
    <g id="📜-Landing-page" stroke="none" stroke-width="1" fill="none" fill-rule="evenodd" stroke-dasharray="0,16" stroke-linecap="round" stroke-linejoin="round">
        <g id="landing-page" transform="translate(-1041.000000, -7277.000000)" stroke="#2C0FEF" stroke-width="4">
            <g id="Group-13" transform="translate(405.000000, 6667.000000)">
                <g id="patternBg" transform="translate(638.000000, 612.000000)">
                    <path d="M0.921658986,0 L0.921658986,300" id="Line"></path>
                    <path d="M15.6682028,0 L15.6682028,300" id="Line"></path>
                    <path d="M30.4147465,0 L30.4147465,300" id="Line"></path>
                    <path d="M45.1612903,0 L45.1612903,300" id="Line"></path>
                    <path d="M59.9078341,0 L59.9078341,300" id="Line"></path>
                    <path d="M74.6543779,0 L74.6543779,300" id="Line"></path>
                    <path d="M89.4009217,0 L89.4009217,300" id="Line"></path>
                    <path d="M104.147465,0 L104.147465,300" id="Line"></path>
                    <path d="M118.894009,0 L118.894009,300" id="Line"></path>
                    <path d="M133.640553,0 L133.640553,300" id="Line"></path>
                    <path d="M148.387097,0 L148.387097,300" id="Line"></path>
                    <path d="M163.133641,0 L163.133641,300" id="Line"></path>
                    <path d="M177.880184,0 L177.880184,300" id="Line"></path>
                    <path d="M192.626728,0 L192.626728,300" id="Line"></path>
                    <path d="M207.373272,0 L207.373272,300" id="Line"></path>
                    <path d="M222.119816,0 L222.119816,300" id="Line"></path>
                    <path d="M236.866359,0 L236.866359,300" id="Line"></path>
                    <path d="M251.612903,0 L251.612903,300" id="Line"></path>
                    <path d="M266.359447,0 L266.359447,300" id="Line"></path>
                    <path d="M281.105991,0 L281.105991,300" id="Line"></path>
                    <path d="M295.852535,0 L295.852535,300" id="Line"></path>
                    <path d="M310.599078,0 L310.599078,300" id="Line"></path>
                    <path d="M325.345622,0 L325.345622,300" id="Line"></path>
                    <path d="M340.092166,0 L340.092166,300" id="Line"></path>
                    <path d="M354.83871,0 L354.83871,300" id="Line"></path>
                    <path d="M369.585253,0 L369.585253,300" id="Line"></path>
                    <path d="M384.331797,0 L384.331797,300" id="Line"></path>
                    <path d="M399.078341,0 L399.078341,300" id="Line"></path>
                </g>
            </g>
        </g>
    </g>
</svg>