<?xml version="1.0" encoding="UTF-8"?>
<svg width="95px" height="104px" viewBox="0 0 95 104" version="1.1" xmlns="http://www.w3.org/2000/svg" xmlns:xlink="http://www.w3.org/1999/xlink">
    <!-- Generator: sketchtool 55.1 (78136) - https://sketchapp.com -->
    <title>5C25C05B-43B9-4BCD-85FD-8138D39E3794</title>
    <desc>Created with sketchtool.</desc>
    <g id="📜-Landing-page" stroke="none" stroke-width="1" fill="none" fill-rule="evenodd">
        <g id="landing-page" transform="translate(-913.000000, -1380.000000)" fill-rule="nonzero">
            <g id="experienced-markers" transform="translate(817.000000, 1380.000000)">
                <g id="archive" transform="translate(96.000000, 0.000000)">
                    <path d="M92.0362903,82.2580645 L85.5846774,98.3870968 L79.1330645,82.2580645 L79.1330645,17.7419355 C79.1330645,14.1790575 82.0217994,11.2903226 85.5846774,11.2903226 C89.1475554,11.2903226 92.0362903,14.1790575 92.0362903,17.7419355 L92.0362903,82.2580645 Z" id="Path" stroke="#5F5A76" stroke-width="4" fill="#579FCA"></path>
                    <polygon id="Path" fill="#579FCA" points="79.7997312 27.4193548 86.2513441 27.4193548 86.2513441 82.2580645 79.7997312 82.2580645"></polygon>
                    <polygon id="Path" fill="#4390BE" points="84.9180108 27.4193548 91.3696237 27.4193548 91.3696237 82.2580645 84.9180108 82.2580645"></polygon>
                    <polygon id="Path" fill="#579FCA" points="79.7997312 20.9677419 90.7029572 20.9677419 90.7029572 27.4193548 79.7997312 27.4193548"></polygon>
                    <polygon id="Path" fill="#7F7B97" points="8.16532258 1.61290323 72.6814516 1.61290323 72.6814516 91.9354839 8.16532258 91.9354839"></polygon>
                    <polygon id="Path" fill="#F2F2E9" points="1.71370968 98.3870968 1.71370968 8.06451613 53.3266129 8.06451613 53.3266129 20.9677419 66.2298387 20.9677419 66.2298387 98.3870968"></polygon>
                    <path d="M1.71370968,88.4261593 C27.9493762,85.4515815 48.4879032,58.5567351 48.4879032,25.8064516 C48.4879032,19.6438698 47.7476058,13.6939264 46.3930192,8.06451613 L1.71370968,8.06451613 L1.71370968,88.4261593 Z" id="Path" fill="#FFFFF5"></path>
                    <polygon id="Path" fill="#F2F2E9" points="66.2298387 20.9677419 53.3266129 8.06451613 53.3266129 20.9677419"></polygon>
                    <path d="M72.6814516,93.5483871 L66.2298387,93.5483871 L66.2298387,90.3225806 L71.0685484,90.3225806 L71.0685484,3.22580645 L9.77822581,3.22580645 L9.77822581,8.06451613 L6.55241935,8.06451613 L6.55241935,1.61290323 C6.55241935,0.722971371 7.27302802,0 8.16532258,0 L72.6814516,0 C73.5737462,0 74.2943548,0.722971371 74.2943548,1.61290323 L74.2943548,91.9354839 C74.2943548,92.8254157 73.5737462,93.5483871 72.6814516,93.5483871 Z" id="Path" fill="#5F5A76"></path>
                    <path d="M66.2298387,100 L1.71370968,100 C0.821415121,100 0.100806452,99.2770286 0.100806452,98.3870968 L0.100806452,8.06451613 C0.100806452,7.17458427 0.821415121,6.4516129 1.71370968,6.4516129 L53.3266129,6.4516129 C54.2189075,6.4516129 54.9395161,7.17458427 54.9395161,8.06451613 L54.9395161,19.3548387 L66.2298387,19.3548387 C67.1221333,19.3548387 67.8427419,20.0778101 67.8427419,20.9677419 L67.8427419,98.3870968 C67.8427419,99.2770286 67.1221333,100 66.2298387,100 Z M3.3266129,96.7741935 L64.6169355,96.7741935 L64.6169355,22.5806452 L53.3266129,22.5806452 C52.4343183,22.5806452 51.7137097,21.8576738 51.7137097,20.9677419 L51.7137097,9.67741935 L3.3266129,9.67741935 L3.3266129,96.7741935 Z" id="Shape" fill="#5F5A76"></path>
                    <polygon id="Path" fill="#6A6683" points="52.1854524 9.20488911 54.4661984 6.92414315 67.3702117 19.827369 65.0886782 22.1089024"></polygon>
                    <polygon id="Path" fill="#6A6683" points="6.55241935 51.6129032 45.2620968 51.6129032 45.2620968 54.8387097 6.55241935 54.8387097"></polygon>
                    <polygon id="Path" fill="#6A6683" points="19.4556452 45.1612903 45.2620968 45.1612903 45.2620968 48.3870968 19.4556452 48.3870968"></polygon>
                    <polygon id="Path" fill="#6A6683" points="6.55241935 35.483871 45.2620968 35.483871 45.2620968 38.7096774 6.55241935 38.7096774"></polygon>
                    <polygon id="Path" fill="#6A6683" points="19.4556452 29.0322581 45.2620968 29.0322581 45.2620968 32.2580645 19.4556452 32.2580645"></polygon>
                    <polygon id="Path" fill="#6A6683" points="6.55241935 83.8709677 45.2620968 83.8709677 45.2620968 87.0967742 6.55241935 87.0967742"></polygon>
                    <polygon id="Path" fill="#6A6683" points="19.4556452 77.4193548 45.2620968 77.4193548 45.2620968 80.6451613 19.4556452 80.6451613"></polygon>
                    <polygon id="Path" fill="#6A6683" points="6.55241935 67.7419355 45.2620968 67.7419355 45.2620968 70.9677419 6.55241935 70.9677419"></polygon>
                    <polygon id="Path" fill="#6A6683" points="19.4556452 61.2903226 45.2620968 61.2903226 45.2620968 64.516129 19.4556452 64.516129"></polygon>
                    <polygon id="Path" fill="#5F5A76" points="79.1330645 19.3548387 92.0362903 19.3548387 92.0362903 22.5806452 79.1330645 22.5806452"></polygon>
                    <polygon id="Path" fill="#5F5A76" points="79.1330645 25.8064516 92.0362903 25.8064516 92.0362903 29.0322581 79.1330645 29.0322581"></polygon>
                    <polygon id="Path" fill="#5F5A76" points="79.1330645 80.6451613 92.0362903 80.6451613 92.0362903 83.8709677 79.1330645 83.8709677"></polygon>
                    <path d="M54.9395161,38.7096774 C54.5134514,38.7096774 54.10235,38.5419292 53.7991431,38.2371472 L50.5733367,35.0113407 L52.8540827,32.7305948 L54.6898627,34.5647996 L60.0491431,26.5239101 L62.7331149,28.3132246 L56.281502,37.990644 C56.0137349,38.3938698 55.5782196,38.6529738 55.0993889,38.7002268 C55.0442603,38.7081024 54.9914944,38.7096774 54.9395161,38.7096774 Z" id="Path" fill="#6A6683"></path>
                    <path d="M54.9395161,54.8387097 C54.5134514,54.8387097 54.10235,54.6709615 53.7991431,54.3661794 L50.5733367,51.140373 L52.8540827,48.859627 L54.6898627,50.6938319 L60.0491431,42.6529423 L62.7331149,44.4422569 L56.281502,54.1196762 C56.0137349,54.522902 55.5782196,54.782006 55.0993889,54.8292591 C55.0442603,54.8371347 54.9914944,54.8387097 54.9395161,54.8387097 L54.9395161,54.8387097 Z" id="Path" fill="#6A6683"></path>
                    <path d="M54.9395161,70.9677419 C54.5134514,70.9677419 54.10235,70.7999938 53.7991431,70.4952117 L50.5733367,67.2694052 L52.8540827,64.9886593 L54.6898627,66.8228641 L60.0491431,58.7819746 L62.7331149,60.5712891 L56.281502,70.2487085 C56.0137349,70.6519343 55.5782196,70.9110383 55.0993889,70.9582913 C55.0442603,70.9661669 54.9914944,70.9677419 54.9395161,70.9677419 Z" id="Path" fill="#6A6683"></path>
                    <path d="M54.9395161,87.0967742 C54.5134514,87.0967742 54.10235,86.929026 53.7991431,86.624244 L50.5733367,83.3984375 L52.8540827,81.1176915 L54.6898627,82.9518964 L60.0491431,74.9110069 L62.7331149,76.7003214 L56.281502,86.3777407 C56.0137349,86.7809665 55.5782196,87.0400706 55.0993889,87.0873236 C55.0442603,87.0951992 54.9914944,87.0967742 54.9395161,87.0967742 Z" id="Path" fill="#6A6683"></path>
                </g>
            </g>
        </g>
    </g>
</svg>