<?xml version="1.0" encoding="UTF-8"?>
<svg width="69px" height="101px" viewBox="0 0 69 101" version="1.1" xmlns="http://www.w3.org/2000/svg" xmlns:xlink="http://www.w3.org/1999/xlink">
    <!-- Generator: sketchtool 55.1 (78136) - https://sketchapp.com -->
    <title>033EECF2-B3BA-47B2-84AD-89CB1300EA96</title>
    <desc>Created with sketchtool.</desc>
    <g id="📜-Landing-page" stroke="none" stroke-width="1" fill="none" fill-rule="evenodd">
        <g id="landing-page" transform="translate(-507.000000, -1379.000000)" fill-rule="nonzero">
            <g id="experienced-markers" transform="translate(398.000000, 1380.000000)">
                <g id="teacher" transform="translate(109.000000, 0.000000)">
                    <path d="M63.4132915,38.0331651 C65.3070197,38.0276567 66.8408609,36.4916295 66.8463612,34.5952026 C66.8322173,32.7019231 65.3030907,31.1706174 63.4132915,31.15724 L63.3960045,31.15724 C63.4132915,30.8645137 63.4132915,28.8539862 63.4132915,28.5785714 C63.1712715,12.6784868 50.1092623,-0.0181313989 34.231806,0.214790757 C18.3535638,-0.0181313989 5.29155464,12.6784868 5.05032035,28.5785714 C5.05032035,28.8539862 5.05032035,30.8645137 5.06682186,31.15724 L5.05032035,31.15724 C3.15973547,31.1706174 1.63060887,32.7019231 1.61725067,34.5952026 C1.62275118,36.4916295 3.15659236,38.0276567 5.05032035,38.0331651 C5.05032035,38.0331651 6.76646232,46.6284648 3.33339265,53.5043897 C0.278282762,59.6241045 1.30765373,67.1185324 6.42307682,71.1065372 L6.44036406,71.1238491 C9.0247921,68.66715 12.2103412,66.9359718 15.675628,66.1042192 L21.7693465,66.1042192 L32.978488,76.4188936 L34.231806,77.5701272 L35.4332625,76.3496465 L45.5776731,66.1042192 L52.7871981,66.1042192 C56.237555,66.9312503 59.409746,68.6498381 61.9886737,71.0900124 L66.5713385,57.7670224 C66.2939585,56.2852914 65.8083468,54.8499874 65.1294335,53.5043897 C61.6963638,46.6284648 63.4132915,38.0331651 63.4132915,38.0331651 Z" id="Path" fill="#AF8066"></path>
                    <path d="M66.5768194,57.7359504 L61.9936018,71.0798448 C59.414363,68.6358417 56.2417895,66.9145574 52.7910164,66.0862287 L45.5806217,66.0862287 L35.4349876,76.3477315 L34.2333862,77.5701272 L32.979917,76.4170873 L21.7694235,66.0862287 L15.67497,66.0862287 C12.2092653,66.9192863 9.0233319,68.6531808 6.43859213,71.1137346 L6.4213028,71.0963955 C1.30526271,67.1021333 0.27576758,59.5959463 3.33124596,53.4666293 C6.76472972,46.5799158 5.04838075,37.9711296 5.04838075,37.9711296 L8.97932295,37.9711296 C8.89366272,37.5920372 8.82529163,37.2310718 8.77342404,36.8693185 C8.84179493,37.213733 8.91095185,37.5408084 8.97932295,37.885223 C9.1671469,38.7521703 9.4021233,39.6088716 9.68346611,40.4505988 L9.99231457,41.2765631 C10.1125535,41.5524098 10.2155028,41.8274685 10.3357415,42.1033154 C11.3117972,44.3290055 12.6328514,46.3860347 14.2501804,48.1979545 C14.6273999,48.6282757 15.0399838,49.0585967 15.4517818,49.4550281 C15.6403916,49.6441802 15.8290013,49.8333323 16.0183969,50.0059335 C16.4301949,50.367687 16.8592823,50.7459912 17.2883694,51.0904057 C17.3229479,51.1077447 17.3575263,51.1424226 17.391319,51.1597615 C17.8376955,51.5207269 18.3013611,51.8651413 18.7823162,52.1922169 C19.2797744,52.5366314 19.7953078,52.863707 20.3273445,53.1734435 C20.8420921,53.4839684 21.3914181,53.7763659 21.9407439,54.0522128 C22.3871204,54.2760428 22.8507862,54.4998728 23.3144518,54.689025 L23.9321489,54.9467448 C24.3274436,55.1020071 24.7219523,55.2572694 25.1172507,55.3778539 C25.2775653,55.4503624 25.4441706,55.5078961 25.6147052,55.5496671 C26.0241456,55.7017769 26.4430164,55.8286666 26.8681744,55.9287595 C27.063857,55.9965391 27.2650408,56.0477677 27.469368,56.0832337 C27.5644588,56.1147591 27.6619071,56.1376151 27.7609274,56.1525895 C28.1216434,56.2558351 28.4815738,56.3244028 28.8422901,56.3937586 C29.1173459,56.4449872 29.3916159,56.4970041 29.6493826,56.5308938 C29.9928097,56.6002495 30.3535258,56.6514782 30.6969529,56.6861563 C31.0034437,56.7373849 31.3130782,56.7720628 31.6234983,56.7894017 C32.0525856,56.8406303 32.481673,56.8579694 32.9115459,56.8753084 C33.3579224,56.8926472 33.7870097,56.9099861 34.2333862,56.9099861 C34.6797627,56.9099861 35.1088498,56.8926472 35.5552263,56.8753084 C35.9843136,56.8579694 36.4134008,56.8406303 36.8424881,56.7894017 C37.1529084,56.7720628 37.4625427,56.7373849 37.7698195,56.6861563 C38.1132464,56.6514782 38.4731769,56.6002495 38.8166038,56.5308938 C39.0743705,56.4970041 39.3494263,56.4449872 39.6236965,56.3937586 C39.9844126,56.3244028 40.3451288,56.2558351 40.7050592,56.1525895 C40.8040793,56.1376151 40.9023135,56.1147591 40.9974042,56.0832337 C41.1954446,56.0477677 41.3911272,55.9965391 41.5805228,55.9287595 C42.0748376,55.8058106 42.5620795,55.6560653 43.0398909,55.4810995 C43.0744694,55.4810995 43.0917587,55.4810995 43.1090479,55.4637606 C43.6583739,55.2911592 44.1731214,55.0846683 44.7051581,54.8781771 C44.8599753,54.8096094 44.9975033,54.7575927 45.1515346,54.689025 C46.1700274,54.2484581 47.1618006,53.7479932 48.1221386,53.1907826 C49.1264855,52.5965295 50.0899673,51.9352852 51.0062963,51.2109903 C51.0746674,51.1597615 51.1257492,51.1077447 51.1949061,51.055728 C51.6239934,50.7121014 52.0530808,50.3503481 52.4648786,49.9712558 C52.9112551,49.5582735 53.3238391,49.1452915 53.7356371,48.7141822 C54.1301458,48.2838611 54.5254405,47.836201 54.9026601,47.388541 C55.1777161,47.0441265 55.4354828,46.7005002 55.7097528,46.3387467 C56.6559452,45.0265039 57.461466,43.6188967 58.1137416,42.1379933 C58.2331945,41.8794854 58.3369296,41.6209775 58.4563825,41.3459188 C58.890185,40.2504127 59.2343979,39.121805 59.4866635,37.9711296 L63.4183915,37.9711296 C63.4183915,37.9711296 61.7012567,46.5799158 65.1347404,53.4666293 C65.8137356,54.8143383 66.2994059,56.2518945 66.5768194,57.7359504 L66.5768194,57.7359504 Z" id="Path" stroke="#5F5A76" stroke-width="2" fill="#5F5A76"></path>
                    <polygon id="Path" fill="#FFDBB3" points="42.0485175 66.2493724 39.5451602 69.9328325 34.366972 77.5701272 29.1879934 69.9328325 26.6846361 66.2493724"></polygon>
                    <path d="M39.0516206,71.640208 C38.0843796,71.640208 37.3,70.8743973 37.3,69.9300537 L37.3,56.638772 C37.3,55.6944287 38.0843796,54.9286177 39.0516206,54.9286177 C40.0196637,54.9286177 40.8040431,55.6944287 40.8040431,56.638772 L40.8040431,69.9300537 C40.8040431,70.8743973 40.0196637,71.640208 39.0516206,71.640208 Z" id="Path" stroke="#5F5A76" stroke-width="2" fill="#F3D0A9"></path>
                    <path d="M29.244882,71.640208 C28.2776411,71.640208 27.4932615,70.8743973 27.4932615,69.9300537 L27.4932615,56.638772 C27.4932615,55.6944287 28.2776411,54.9286177 29.244882,54.9286177 C30.2129251,54.9286177 30.9973046,55.6944287 30.9973046,56.638772 L30.9973046,69.9300537 C30.9973046,70.8743973 30.2129251,71.640208 29.244882,71.640208 Z" id="Path" stroke="#5F5A76" stroke-width="2" fill="#F3D0A9"></path>
                    <polygon id="Path" fill="#FFDBB3" points="29.7771788 56.5458684 38.4438455 56.5458684 38.4438455 73.2125351 29.7771788 73.2125351"></polygon>
                    <path d="M67.2331536,93.9762921 L65.7995485,88.1915546 L62.1283469,73.301614 C61.8201471,72.9732646 61.4899122,72.6474662 61.1240885,72.3093514 C58.7755728,70.0973871 55.8958797,68.527659 52.761649,67.7493724 L46.3482193,67.7493724 L36.6362052,77.5130888 L34.4192756,79.7547901 L33.3547869,78.7814913 L32.0991823,77.6334478 L21.3084753,67.7493724 L15.9760007,67.7493724 C7.49490872,69.9083271 1.53693784,77.5086019 1.5,86.2391855 L1.49999363,96.5119968 C1.50309274,97.5755926 2.36924309,98.4389981 3.4366183,98.4420948 L65.2921923,98.4421011 C66.3639107,98.4389981 67.230061,97.5755927 67.2331536,96.5163675 L67.2331536,93.9762921 Z" id="Path" stroke="#5F5A76" stroke-width="3" fill="#579FCA"></path>
                    <path d="M39.3530997,56.5458684 L39.3530997,59.8537477 C35.9685993,60.4746885 32.4950126,60.4746885 29.1105121,59.8537477 L29.1105121,56.5458684 L39.3530997,56.5458684 Z" id="Path" fill="#F3D0A9"></path>
                    <path d="M36.1666667,76.5529979 C36.1619602,76.3573773 36.0830414,76.1601628 35.9342203,75.9808173 L34.3483936,77.1600075 L32.6886411,76.044042 C32.5658203,76.2054475 32.5021405,76.3787422 32.5,76.5477293 L32.5,98.2834681 L36.1666667,98.2834681 L36.1666667,76.5529979 Z" id="Path" stroke="#5F5A76" fill="#4390BE"></path>
                    <path d="M34.2318059,77.5596208 L28.9429144,84.202202 C28.5911573,84.6454607 28.0443277,84.8848047 27.4818297,84.843077 C26.9193316,84.8021366 26.4132402,84.4840611 26.1288574,83.9943507 L16.4057893,67.2426378 C16.1550938,66.8104016 16.103388,66.2899861 16.2655567,65.8168093 C16.4269418,65.3436327 16.7857498,64.964934 17.2479696,64.7791275 L22.6794441,62.5966888 C23.4315306,62.2967216 24.2901626,62.56992 24.7335804,63.2501606 L26.6153633,66.0876459 L29.0972487,69.8203088 L34.2318059,77.5596208 Z" id="Path" stroke="#5F5A76" stroke-width="2" fill="#FFFFFF"></path>
                    <path d="M52.0578123,67.2432599 L42.3343223,83.9943928 C42.0499274,84.484086 41.5438139,84.8013632 40.9812913,84.8430894 C40.418769,84.8848156 39.8719157,84.6446928 39.5193599,84.2022369 L34.2318059,77.5590983 L39.3658023,69.8200544 L41.8477953,66.0875207 L43.7304435,63.2501338 C44.1738803,62.5699167 45.0317662,62.2967278 45.7838854,62.5966846 L51.2148121,64.779835 C51.6770521,64.965635 52.0366589,65.3443206 52.1980512,65.817481 C52.3602269,66.2906412 52.3085186,66.8110387 52.0578123,67.2432599 L52.0578123,67.2432599 Z" id="Path" stroke="#5F5A76" stroke-width="2" fill="#FFFFFF"></path>
                    <path d="M9.70350404,40.6429034 C9.44164343,39.8517175 9.23285323,39.0412533 9.07783187,38.2169087 C9.00171777,37.8459922 8.94096608,37.4928117 8.89487871,37.1388603 C8.95563022,37.4758468 9.01708017,37.7958682 9.07783187,38.1328549 C9.24472438,38.9811048 9.45351458,39.8193297 9.70350404,40.6429034 Z" id="Path" fill="#FDD7AD"></path>
                    <path d="M63.3423181,28.6259644 C63.3423181,28.9018394 63.3423181,30.9157258 63.3250731,31.2089412 L59.7976661,31.2089412 C59.7459309,30.588617 59.6432441,29.9690808 59.5405574,29.3495448 C59.4378708,28.867158 59.335184,28.3847711 59.198007,27.9031724 C59.198007,27.8858316 59.180762,27.868491 59.180762,27.8511503 L59.180762,27.8338095 C58.0410176,25.3217719 56.5595069,22.9807769 54.780126,20.8778223 C40.6015186,22.0656604 32.9298011,16.6931948 29.5740613,13.2494885 C28.7361063,12.4415694 28.000054,11.533547 27.3823659,10.5459151 C27.1464216,11.2584604 26.8179808,11.9355362 26.4056663,12.5605897 C24.830875,15.1088851 20.9436729,19.5000245 12.0561755,22.1003421 C11.4737614,22.2895134 10.8748863,22.4447915 10.257982,22.5992814 L9.35026261,27.558723 L9.35026261,27.5752754 C9.19662445,28.1609183 9.04220247,28.7465613 8.92227069,29.3495448 C8.81958391,29.9690808 8.71689713,30.588617 8.66594575,31.2089412 L5.13775518,31.2089412 C5.1212938,30.9157258 5.1212938,28.9018394 5.1212938,28.6259644 C5.36194138,12.6993153 18.392182,-0.0185152751 34.231806,0.214796026 C50.0706461,-0.0185152751 63.1008867,12.6993153 63.3423181,28.6259644 Z" id="Path" stroke="#5F5A76" stroke-width="2" fill="#6A6683"></path>
                    <path d="M9.16442049,37.9474856 L5.2798088,37.9474856 C3.40817477,37.9420874 1.89222878,36.4367499 1.88679245,34.5782135 C1.8999948,32.7227616 3.41128122,31.2220513 5.2798088,31.2089412 L8.79164688,31.2089412 C8.70854938,31.9299917 8.66894234,32.6556694 8.67282535,33.382118 C8.67515523,34.1810573 8.72019861,34.9799967 8.80795568,35.7743088 C8.84212659,36.1452451 8.91046842,36.4984441 8.96094833,36.8693803 C9.0122046,37.2233504 9.07976986,37.5765496 9.16442049,37.9474856 Z" id="Path" stroke="#5F5A76" stroke-width="2" fill="#F3D0A9"></path>
                    <path d="M66.8463612,34.5782135 C66.8409256,36.4367499 65.3251414,37.9420874 63.4537069,37.9474856 L59.5687332,37.9474856 C59.7217095,37.2233504 59.8405183,36.5154101 59.9251599,35.7743088 C60.0129076,34.9799967 60.0587229,34.1810573 60.0610525,33.382118 C60.0641586,32.6556694 60.0245556,31.9299917 59.9422435,31.2089412 L63.4537069,31.2089412 C65.3212586,31.2220513 66.8323838,32.7227616 66.8463612,34.5782135 L66.8463612,34.5782135 Z" id="Path" stroke="#5F5A76" stroke-width="2" fill="#F3D0A9"></path>
                    <path d="M59.9701734,35.9821745 C59.8845481,36.7375295 59.7643584,37.459086 59.6096042,38.1971487 C59.3574415,39.3447223 59.0133689,40.4702876 58.5797433,41.5628406 C58.4603391,41.8371578 58.3566462,42.0949689 58.2372421,42.3527799 C57.5852324,43.8296912 56.78004,45.2335039 55.8342333,46.5422094 C55.5600752,46.9029877 55.3024136,47.2456877 55.0274697,47.5891737 C54.6504039,48.035627 54.2552704,48.4820803 53.8609225,48.9112415 C53.4492924,49.3411886 53.0368766,49.7530573 52.5906821,50.1649263 C52.1790522,50.5429968 51.7501398,50.9037749 51.3212274,51.2464751 C51.2520986,51.2983516 51.2010377,51.3502282 51.1326945,51.4013189 C50.216739,52.1236613 49.2536501,52.7831231 48.2497126,53.3757743 C47.2897661,53.9314829 46.2983973,54.4305986 45.2803197,54.8699779 C45.1263512,54.9383607 44.9888793,54.9902372 44.8341252,55.0586201 C44.3023055,55.2645546 43.7877678,55.470489 43.2386657,55.6426251 C43.2213836,55.6599172 43.2041013,55.6599172 43.169537,55.6599172 C42.6919203,55.8344113 42.2048771,55.983753 41.7107638,56.1063704 C41.5214455,56.1739673 41.3258427,56.2250579 41.1278829,56.2604283 C41.032831,56.2918686 40.9346368,56.314663 40.8356572,56.3295971 C40.4758735,56.4325643 40.1153043,56.5009472 39.7547353,56.570116 C39.4805769,56.6212066 39.2056332,56.6730833 38.9479716,56.7068815 C38.6046847,56.7760504 38.2449011,56.8271409 37.9016141,56.8617255 C37.5944626,56.9128161 37.2849546,56.9474005 36.9746608,56.9646926 C36.5457484,57.0157831 36.1168362,57.0330754 35.6879238,57.0503677 C35.2417293,57.0676599 34.8128171,57.084952 34.3666226,57.084952 C33.9204281,57.084952 33.4915157,57.0676599 33.0453213,57.0503677 C32.6156235,57.0330754 32.1867111,57.0157831 31.7577987,56.9646926 C31.4475052,56.9474005 31.1379969,56.9128161 30.8316311,56.8617255 C30.488344,56.8271409 30.127775,56.7760504 29.7844879,56.7068815 C29.5268263,56.6730833 29.2526681,56.6212066 28.9777244,56.570116 C28.6171553,56.5009472 28.2573716,56.4325643 27.8968026,56.3295971 C27.7978227,56.314663 27.7004141,56.2918686 27.6053621,56.2604283 C27.4011182,56.2250579 27.2000164,56.1739673 27.0044136,56.1063704 C26.5794289,56.0065474 26.1607289,55.8799998 25.7514555,55.7283 C25.5809904,55.6866416 25.414453,55.6292629 25.2542,55.5569499 C24.8590665,55.4366905 24.4647187,55.2818467 24.0695851,55.127003 L23.4521398,54.8699779 C22.9886633,54.6813356 22.5251865,54.458109 22.078992,54.2348824 C21.5298901,53.959779 20.9807881,53.6681697 20.4662504,53.3584819 C19.9344306,53.0495803 19.4191074,52.7233864 18.921852,52.3799004 C18.4410929,52.0537065 17.9776163,51.7102205 17.5314219,51.3502282 C17.497643,51.332936 17.4630786,51.2983516 17.4285143,51.2810593 C16.9996021,50.9375733 16.5706897,50.5602889 16.1590595,50.1995105 C15.9697412,50.0273747 15.7812083,49.8387324 15.5926754,49.6500902 C15.1810453,49.2547275 14.7686296,48.8255665 14.3915639,48.3964053 C12.7748943,46.5893699 11.4543787,44.5378858 10.4787209,42.3181955 C10.3585312,42.0430922 10.2556239,41.768775 10.135434,41.4936718 L9.82671145,40.6699341 C9.54548334,39.830476 9.31060274,38.976084 9.12285537,38.1114738 C9.05451215,37.7679876 8.98538342,37.4417939 8.9170404,37.0983079 C8.86597926,36.7202372 8.79685054,36.3602451 8.76228618,35.9821745 C8.67351867,35.172585 8.62795665,34.3582794 8.62533693,33.5439737 C8.62167222,32.8035531 8.66173531,32.0639182 8.7457896,31.3289994 C8.79685054,30.7104103 8.89975812,30.0926069 9.0026657,29.4748037 C9.12285537,28.8735066 9.27760939,28.2895017 9.43157791,27.7054967 L9.43157791,27.6889906 L10.3412492,22.7434201 C10.9594799,22.5893623 11.5596428,22.4345185 12.1433092,22.2458762 C21.0499168,19.6528315 24.9454773,15.2739737 26.5236548,12.7328057 C26.9368559,12.1095004 27.2660029,11.4343184 27.5024546,10.723766 C28.1214708,11.7086356 28.8591058,12.6141183 29.6988626,13.4197777 C33.061818,16.8538523 40.7500317,22.2112916 54.9591265,21.0267758 C56.7423334,23.1238486 58.2270297,25.4582961 59.3692249,27.9633077 L59.3692249,27.9806001 C59.3692249,27.9978922 59.3865069,28.0151843 59.3865069,28.0324766 C59.5066968,28.5127283 59.6268865,28.993766 59.7297939,29.4748037 C59.8327014,30.0926069 59.935609,30.7104103 59.9874555,31.3289994 C60.0707242,32.0639182 60.1107875,32.8035531 60.1078167,33.5439737 C60.1052886,34.3582794 60.0589409,35.172585 59.9701734,35.9821745 Z" id="Path" stroke="#5F5A76" stroke-width="2" fill="#FFDBB3"></path>
                    <path d="M42.8571429,93.0683784 C42.8571429,94.0364214 42.0727634,94.820801 41.1055223,94.820801 C40.1374794,94.820801 39.3530997,94.0364214 39.3530997,93.0683784 C39.3530997,92.1011375 40.1374794,91.3167579 41.1055223,91.3167579 C42.0727634,91.3167579 42.8571429,92.1011375 42.8571429,93.0683784 Z" id="Path" stroke="#5F5A76" fill="#FFFFFF"></path>
                    <path d="M30.9970391,31.3438774 C30.9970391,33.1671444 30.2738192,34.9156873 28.9853874,36.2040872 C27.6969554,37.4932738 25.9494359,38.2177038 24.1272363,38.2170274 C22.7546906,38.2247831 21.4120171,37.8110477 20.2808068,37.0315578 C17.8839618,35.4167317 16.7551099,32.4733907 17.4563187,29.6692721 C18.1575276,26.8651537 20.5394367,24.8004101 23.4134497,24.5062332 C26.2874627,24.2120565 29.0380567,25.7497987 30.2926858,28.3541287 C30.764351,29.2791338 31.0064726,30.3048198 30.9970391,31.3438774 Z" id="Path" fill="#FFFFF5"></path>
                    <path d="M51.4824798,31.3440759 C51.4831967,33.1673193 50.7587415,34.9158395 49.46951,36.2042228 C48.1810653,37.4933927 46.4324616,38.2178133 44.6091314,38.2170274 C40.8216699,38.1957896 37.7570906,35.1313566 37.7358491,31.3440759 C37.732706,28.1364892 39.9501212,25.3544307 43.0784148,24.6425949 C46.2059218,23.9299727 49.4097287,25.4787069 50.794925,28.3716703 C51.2519375,29.2950902 51.4871298,30.3128974 51.4824798,31.3440759 Z" id="Path" fill="#FFFFF5"></path>
                    <path d="M18.8679245,31.2990284 C18.8647986,32.2406039 18.1021137,33.0032409 17.1604793,33.0055849 C14.4988969,33.0180871 11.8638833,33.5338049 9.39375332,34.5253892 C9.16948037,34.6504117 8.91629401,34.7152672 8.65920051,34.7129229 C8.64279013,34.3198835 8.62559856,33.910435 8.62559856,33.5009865 C8.62169142,32.7649168 8.66154468,32.0296284 8.74515874,31.2990284 C8.74515874,31.230266 8.76156892,31.1622852 8.76156892,31.0943042 C11.4575349,30.126943 14.2965041,29.6190392 17.1604793,29.5916905 C18.1021137,29.5948161 18.8647986,30.357453 18.8679245,31.2990284 Z" id="Path" stroke="#5F5A76" stroke-width="2" fill="#8D88A5"></path>
                    <path d="M60.1076462,33.5009865 C60.1076462,33.910435 60.0904556,34.3198835 60.0732652,34.7129229 C59.816189,34.7152672 59.5630195,34.6504117 59.339543,34.5253892 C56.8695797,33.5338049 54.2339623,33.0180871 51.572559,33.0055849 C50.6302066,33.0055849 49.8652291,32.2413852 49.8652291,31.2990284 C49.8652291,30.3558904 50.6302066,29.5916905 51.572559,29.5916905 C54.4363413,29.6190392 57.2751192,30.126943 59.9709035,31.0943042 C59.9709035,31.1622852 59.9880939,31.230266 59.9880939,31.2990284 C60.070921,32.0296284 60.1107718,32.7649168 60.1076462,33.5009865 Z" id="Path" stroke="#5F5A76" stroke-width="2" fill="#8D88A5"></path>
                    <path d="M37.6435896,33.0957336 C37.1896467,33.0965128 36.7544877,32.9167634 36.4343797,32.5955592 C35.83721,31.9797227 35.0662898,31.5584842 34.2241475,31.3888945 C33.3796571,31.5592656 32.6063889,31.9820671 32.0084365,32.6010299 C31.3361314,33.2489089 30.2678004,33.238749 29.6088004,32.5775844 C28.9498007,31.9172013 28.9435394,30.8496468 29.5954953,30.1814483 C30.8313157,28.9263296 32.4694233,28.1455924 34.2241475,27.9744398 C35.9780888,28.1455924 37.6161964,28.9263296 38.8520169,30.1814483 C39.3411794,30.6698974 39.4875369,31.4045251 39.2229979,32.0422442 C38.957676,32.6799634 38.3346785,33.0957336 37.6435896,33.0957336 Z" id="Path" stroke="#5F5A76" stroke-width="2" fill="#8D88A5"></path>
                    <path d="M30.9970375,31.2671193 C30.9970375,33.1107482 30.2694193,34.8788185 28.9731517,36.1816071 C27.676884,37.4851911 25.9187368,38.2177114 24.0854553,38.2169161 C22.7045624,38.2248697 21.3537233,37.8065138 20.2156334,37.0183187 C20.9582786,33.5434204 23.2914024,29.0433118 30.2884006,28.2439816 C30.7629342,29.179317 31.0065284,30.2164577 30.9970375,31.2671193 Z" id="Path" fill="#F2F2E9"></path>
                    <path d="M51.4824798,31.2549363 C51.4831906,33.1018254 50.7649172,34.8730222 49.4866868,36.1781145 C48.2092364,37.4840037 46.4755536,38.2178193 44.6677819,38.2170274 C43.3536768,38.2186162 42.0676476,37.8250168 40.9703504,37.0856238 C41.8266634,32.1560716 45.906238,28.4869933 50.800792,28.2439816 C51.2539047,29.1793774 51.4870901,30.2103845 51.4824798,31.2549363 Z" id="Path" fill="#F2F2E9"></path>
                    <path d="M23.9888236,39.8342781 C19.2254423,39.8342781 15.3638814,35.9721044 15.3638814,31.2089411 C15.3638814,26.4449882 19.2254423,22.5836042 23.9888236,22.5836042 C28.7529946,22.5836042 32.6145553,26.4449882 32.6145553,31.2089411 C32.6090276,35.9697356 28.7506255,39.8279609 23.9888236,39.8342781 Z M23.9888236,26.0335811 C21.1309527,26.0335811 18.8140163,28.3504116 18.8140163,31.2089411 C18.8140163,34.0666812 21.1309527,36.3835117 23.9888236,36.3835117 C26.8474842,36.3835117 29.1644205,34.0666812 29.1644205,31.2089411 C29.1612618,28.3519908 26.8459047,26.0367397 23.9888236,26.0335811 Z" id="Shape" stroke="#5F5A76" stroke-width="2" fill="#8D88A5"></path>
                    <path d="M44.7439354,39.8342781 C39.9799823,39.8342781 36.1185984,35.9721044 36.1185984,31.2089411 C36.1185984,26.4449882 39.9799823,22.5836042 44.7439354,22.5836042 C49.5070987,22.5836042 53.3692722,26.4449882 53.3692722,31.2089411 C53.362955,35.9697356 49.5047297,39.8279609 44.7439354,39.8342781 L44.7439354,39.8342781 Z M44.7439354,26.0335811 C41.8854055,26.0335811 39.5685752,28.3504116 39.5685752,31.2089411 C39.5685752,34.0666812 41.8854055,36.3835117 44.7439354,36.3835117 C47.6016753,36.3835117 49.9185058,34.0666812 49.9185058,31.2089411 C49.9153472,28.3519908 47.6008857,26.0367397 44.7439354,26.0335811 Z" id="Shape" stroke="#5F5A76" stroke-width="2" fill="#8D88A5"></path>
                </g>
            </g>
        </g>
    </g>
</svg>