<?xml version="1.0" encoding="UTF-8"?>
<svg width="124px" height="100px" viewBox="0 0 124 100" version="1.1" xmlns="http://www.w3.org/2000/svg" xmlns:xlink="http://www.w3.org/1999/xlink">
    <!-- Generator: sketchtool 55.1 (78136) - https://sketchapp.com -->
    <title>08D0AB32-8F80-443E-A74E-055DEFBEF999</title>
    <desc>Created with sketchtool.</desc>
    <g id="📜-Landing-page" stroke="none" stroke-width="1" fill="none" fill-rule="evenodd">
        <g id="landing-page" transform="translate(-1306.000000, -1380.000000)" fill-rule="nonzero">
            <g id="experienced-markers" transform="translate(1221.000000, 1380.000000)">
                <g id="chat" transform="translate(85.000000, 0.000000)">
                    <path d="M29.1406235,6.40213462 L29.1406202,6.40380193 L29.0273416,51.0955955 C29.0222374,52.3862623 29.5307932,53.625675 30.440942,54.5407834 C31.3509781,55.4557783 32.5877462,55.9709444 33.8804515,55.9726015 L106.030692,56.1654469 C107.321358,56.1705511 108.560771,55.6619953 109.47588,54.7518464 C110.390874,53.8418104 110.906041,52.6050423 110.907697,51.312649 L110.980625,21.7243409 L111.422405,21.285857 L121.439401,11.3436058 C121.618563,11.1643019 121.672344,10.8947962 121.575709,10.6603755 C121.478982,10.4257315 121.250935,10.2723755 120.999372,10.2713889 L111.011312,10.2447993 L111.01539,8.74472016 L111.021166,6.62070579 C111.026308,5.33007493 110.517768,4.09067455 109.607616,3.17556279 C108.69758,2.2605679 107.460812,1.74540176 106.168111,1.74374466 L34.0178661,1.55113964 C32.7271993,1.54603544 31.4877865,2.05459123 30.5725708,2.96484685 C29.6576944,3.87458151 29.1424604,5.11134718 29.1406235,6.40213462 Z" id="Path" stroke="#5F5A76" stroke-width="3" fill="#7F7B97"></path>
                    <path d="M93.9824567,48.73385 L93.9824534,48.7321827 C93.9806165,47.4413944 93.4653774,46.2045677 92.5503987,45.2945478 C91.6352904,44.3843989 90.3958776,43.8758431 89.1032831,43.8809537 L16.9528827,44.0735565 C15.6622654,44.0752095 14.4254973,44.5903756 13.5154613,45.5053705 C12.605309,46.4204822 12.0967685,47.6598826 12.1019175,48.9524125 L12.1117649,52.574607 L10.6116855,52.5786005 L2.12558726,52.6011904 C1.87214196,52.6021832 1.64409468,52.7555392 1.54736795,52.9901832 C1.45073324,53.2246039 1.50451397,53.4941096 1.67929071,53.6690428 L12.1424517,64.0543996 L12.1439858,64.6768317 L12.2153834,93.6442327 C12.2170364,94.93485 12.7322025,96.1716181 13.6471974,97.0816541 C14.5623057,97.991803 15.8017185,98.5003588 17.0943131,98.4952482 L89.2447135,98.3026455 C90.5353308,98.3009925 91.7720988,97.7858263 92.6821349,96.8708314 C93.5922838,95.9557231 94.1008396,94.7163103 94.0957284,93.4235135 L93.9824567,48.73385 Z" id="Path" stroke="#5F5A76" stroke-width="3" fill="#8D88A5"></path>
                    <path d="M76.4694712,78.6110577 L76.5146635,97.7858173 L38.3185096,97.8877404 L38.2509615,70.3735577 L48.8610577,70.3451923 C44.9216346,65.2204327 45.0048077,56.6471154 45.6526442,52.8682692 C46.0757212,50.5978365 48.0649038,48.9567308 50.3742788,48.9722451 C50.7526442,48.9728365 51.1298077,49.0146635 51.4992788,49.0966346 C53.7002404,49.6543269 55.2266827,51.6548077 55.1831731,53.925 L55.1903846,56.6625 C55.1637019,59.9408654 56.1504808,63.1473558 58.0161058,65.8432692 C59.3814904,67.909375 61.3817308,69.4757212 63.7149038,70.3057692 C68.4579327,72.2338942 72.7875,75.0533654 76.4694712,78.6110577 Z" id="Path" stroke="#5F5A76" stroke-width="3" fill="#FFDBB3"></path>
                    <g id="Group" transform="translate(44.471154, 21.153846)" fill="#FFFFF5" stroke="#5F5A76" stroke-width="3">
                        <circle id="Oval" cx="6.50865385" cy="6.48317308" r="6.36610577"></circle>
                        <circle id="Oval" cx="25.6067308" cy="6.48317308" r="6.36610577"></circle>
                        <circle id="Oval" cx="44.7048077" cy="6.48317308" r="6.36610577"></circle>
                    </g>
                    <path d="M47.4995192,74.4699519 L38.2475962,74.4699519 C38.0826923,74.4711538 37.9185096,74.4497596 37.7596154,74.40625 C37.9149038,74.3456731 38.0810096,74.3168269 38.2475962,74.3213942 L46.7355769,74.3213942 C46.9980769,74.3151442 47.2586538,74.3658654 47.4995192,74.4699519 Z" id="Path" fill="#F09372"></path>
                    <g id="Group" transform="translate(29.567308, 70.782051)" fill="#FDD7AD">
                        <path d="M17.1682692,8.57211538 L8.68028846,8.57211538 C6.33629808,8.57211538 4.43629808,6.671875 4.43629808,4.328125 L4.43629808,4.328125 C4.43629808,1.98413462 6.33629808,0.0841346154 8.68028846,0.0841346154 L17.1682692,0.0841346154 C19.5122596,0.0841346154 21.4122596,1.984375 21.4122596,4.328125 L21.4122596,4.328125 C21.4125,6.67211538 19.5122596,8.57211538 17.1682692,8.57211538 Z" id="Path"></path>
                        <path d="M23.534375,17.0600962 L4.43629808,17.0600962 C2.09230769,17.0600962 0.192307692,15.1598558 0.192307692,12.8161058 L0.192307692,12.8161058 C0.192307692,10.4721154 2.09230769,8.57211538 4.43629808,8.57211538 L23.534375,8.57211538 C25.8783654,8.57211538 27.7783654,10.4721154 27.7783654,12.8161058 L27.7783654,12.8161058 C27.7783654,15.1600962 25.8783654,17.0600962 23.534375,17.0600962 Z" id="Path"></path>
                        <path d="M2.35673077,25.5483173 C2.01899038,25.3425481 1.71177885,25.090625 1.44423077,24.7992788 C0.379086538,23.6540865 -0.0478365385,22.0548077 0.304807692,20.53125 C0.752403846,18.5002404 2.55456731,17.0552885 4.634375,17.0600842 L23.5346154,17.0600842 C24.6769231,17.0612981 25.7646635,17.5480769 26.5266827,18.3990385 C27.4723558,19.4194712 27.9170673,20.8067308 27.7408654,22.1867788 C27.5646635,23.5668269 26.7858173,24.7978365 25.6141827,25.5480769 L2.35673077,25.5480769 L2.35673077,25.5483173 Z" id="Path"></path>
                    </g>
                    <path d="M80.0783654,78.5499199 C79.7165865,78.1900641 71.1425481,69.8309295 64.3673077,67.6210737 C62.4742788,66.931891 60.8555288,65.6484776 59.7528846,63.9624199 C58.1305288,61.6232372 57.2776442,58.8364583 57.3125,55.9900641 L57.3052885,53.2525641 C57.3610577,50.6609776 55.9665865,48.2544872 53.6899038,47.0145833 C51.4134615,45.7746795 48.6353365,45.9083333 46.4882212,47.3609776 C44.9350962,48.3895833 43.8728365,50.0114583 43.5507212,51.8463141 C42.7235577,57.0869391 43.2716346,62.4525641 45.1413462,67.4177083 L38.2447115,67.4362179 C34.7331731,67.4559295 31.8966346,70.3076122 31.8956731,73.8191506 C31.8990385,74.6270833 32.0596154,75.4268429 32.36875,76.1732372 C30.2242788,76.7489583 28.5375,78.4047276 27.9223558,80.538141 C27.3072115,82.6715545 27.8533654,84.9713141 29.3620192,86.6004006 C28.6004808,87.472516 28.0769231,88.5263622 27.8423077,89.6602564 C27.7612981,90.0585737 27.7197115,90.4638622 27.7182692,90.8701122 C27.6658654,92.4963141 28.2927885,94.0708333 29.4487981,95.2155449 C30.6555288,96.4655449 32.3213942,97.1665064 34.0586538,97.1558125 L53.2204327,97.1044872 C56.6346154,97.1453526 59.4466346,94.4321314 59.5276442,91.0186699 C59.5401442,89.3633814 58.9384615,87.7621795 57.8394231,86.5244391 C58.9161058,85.3556891 59.5108173,83.8227564 59.5043269,82.2335737 C59.4846154,78.7220353 56.6329327,75.8852564 53.1213942,75.8845353 L52.7394231,75.8854968 C52.9944712,75.2071314 53.1221154,74.4871795 53.115625,73.7624199 C53.1096154,71.8758814 52.2649038,70.0898237 50.8108173,68.8879006 L50.7896635,68.8667468 C50.7341346,68.6967949 50.6473558,68.5386218 50.5338942,68.4004006 C47.2545673,64.1227564 47.0853365,56.3989583 47.7329327,52.5564103 C47.8610577,51.872516 48.2668269,51.2722756 48.8533654,50.8982372 C49.6961538,50.3044872 50.8050481,50.2482372 51.7036058,50.7532853 C52.6021635,51.2583333 53.1305288,52.235016 53.0612981,53.2636218 L53.0685096,56.0011218 C53.0413462,59.7191506 54.1627404,63.3549679 56.2793269,66.4116987 C57.9012019,68.8590545 60.2855769,70.7025641 63.0622596,71.6561699 C68.8817308,73.5504006 77.0302885,81.4862179 77.1153846,81.5708333 C77.5117788,81.9616987 78.0459135,82.1811699 78.6024038,82.1823718 C79.1706731,82.1842949 79.7149038,81.9528045 80.1074519,81.5417468 C80.5055288,81.1439103 80.7269231,80.6025641 80.7214954,80.0395833 C80.7161058,79.4770833 80.4841346,78.9400641 80.0783654,78.5499199 Z M37.7259615,71.7665064 L37.7685096,71.7665064 C37.9237981,71.7054487 38.0896635,71.6761218 38.25625,71.6804487 L46.7442308,71.6578526 C47.0064904,71.6508814 47.2673077,71.7008814 47.5084135,71.8042468 C48.4629808,72.1681891 49.021875,73.1616987 48.8372596,74.1665064 C48.6526442,75.1713141 47.7771635,75.9011218 46.7555288,75.9020833 L38.2675481,75.9246795 C37.0971154,75.9241987 36.1463942,74.978766 36.1398848,73.8083333 C36.1358173,72.8436699 36.7903846,72.0011218 37.7259615,71.7665064 Z M53.209375,92.8604968 L34.0475962,92.9116987 C33.45625,92.9177083 32.8882212,92.6816506 32.4754808,92.2580929 C32.1408654,91.9201122 31.95625,91.4616987 31.9625749,90.9862179 C31.9641827,90.8085737 31.9778846,90.6314103 32.0038462,90.4556891 C32.2430288,89.4088141 33.1745192,88.6665064 34.2483173,88.6672276 L53.1552885,88.6167468 C53.7165865,88.6278045 54.2480769,88.872516 54.6213942,89.2919872 C55.0620192,89.7703526 55.2995192,90.4011218 55.2838942,91.0513622 C55.1836538,92.110016 54.271875,92.9049679 53.209375,92.8604968 Z M53.1329327,80.1285209 C54.284375,80.1261218 55.2278846,81.0422276 55.2598558,82.1931891 C55.2915865,83.344391 54.4002404,84.3109776 53.2502404,84.3722756 L34.0459135,84.4234853 C32.8740385,84.4266026 31.9213942,83.4790064 31.9182615,82.3071314 C31.9151442,81.1352564 32.8627404,80.1826122 34.0346154,80.1794872 L53.1329327,80.1285209 Z" id="Shape" fill="#5F5A76"></path>
                    <path d="M94.0420725,79.1200986 C94.0402582,78.7751419 93.7606456,78.4960084 93.4199519,78.4949519 L78.5704855,78.4949448 C78.2246806,78.4960099 77.944737,78.7759535 77.94375,79.1170673 L77.94375,98.2855835 L89.1780904,98.2855849 C90.4686492,98.2874165 91.7066993,97.7755861 92.6193879,96.8628975 C93.5318443,95.9504412 94.0437229,94.7123225 94.0420725,93.4197115 L94.0420725,79.1200986 Z" id="Path" stroke="#5F5A76" stroke-width="3" fill="#579FCA"></path>
                </g>
            </g>
        </g>
    </g>
</svg>