<?xml version="1.0" encoding="UTF-8"?>
<svg width="38px" height="27px" viewBox="0 0 38 27" version="1.1" xmlns="http://www.w3.org/2000/svg" xmlns:xlink="http://www.w3.org/1999/xlink">
    <!-- Generator: sketchtool 55.1 (78136) - https://sketchapp.com -->
    <title>3F3794FF-0254-44BE-8770-DAEAD8DC3A55</title>
    <desc>Created with sketchtool.</desc>
    <g id="📜-Landing-page" stroke="none" stroke-width="1" fill="none" fill-rule="evenodd">
        <g id="landing-page" transform="translate(-910.000000, -3991.000000)" fill="#393649" fill-rule="nonzero">
            <g id="choose-essay" transform="translate(910.000000, 3991.000000)">
                <path d="M36.2675676,7.2972973 L19.7756757,7.2972973 L19.7756757,1.09459459 C19.7756757,0.49000213 19.2856735,0 18.6810811,0 C18.0764886,0 17.5864865,0.49000213 17.5864865,1.09459459 L17.5864865,7.2972973 L1.09459459,7.2972973 C0.49000213,7.2972973 0,7.78729943 0,8.39189189 L0,25.9054054 C0,26.5099979 0.49000213,27 1.09459459,27 L36.2675676,27 C36.87216,27 37.3621622,26.5099979 37.3621622,25.9054054 L37.3621622,8.39189189 C37.3621622,7.78729943 36.87216,7.2972973 36.2675676,7.2972973 Z M35.172973,24.8108108 L2.18918919,24.8108108 L2.18918919,9.48648649 L35.172973,9.48648649 L35.172973,24.8108108 Z" id="Shape"></path>
                <path d="M9.92432432,16.0540541 L5.54594595,16.0540541 C4.94135348,16.0540541 4.45135135,16.5440562 4.45135135,17.1486486 C4.45135135,17.7532411 4.94135348,18.2432432 5.54594595,18.2432432 L9.92432432,18.2432432 C10.5289168,18.2432432 11.0189189,17.7532411 11.0189189,17.1486486 C11.0189189,16.5440562 10.5289168,16.0540541 9.92432432,16.0540541 Z" id="Path"></path>
                <path d="M15.3972973,17.1486486 C15.3972973,17.7532411 14.9072952,18.2432432 14.3027027,18.2432432 C13.6981102,18.2432432 13.2081081,17.7532411 13.2081081,17.1486486 C13.2081081,16.5440562 13.6981102,16.0540541 14.3027027,16.0540541 C14.9072952,16.0540541 15.3972973,16.5440562 15.3972973,17.1486486 Z" id="Path"></path>
                <path d="M19.7756757,17.1486486 C19.7756757,17.7532411 19.2856735,18.2432432 18.6810811,18.2432432 C18.0764886,18.2432432 17.5864865,17.7532411 17.5864865,17.1486486 C17.5864865,16.5440562 18.0764886,16.0540541 18.6810811,16.0540541 C19.2856735,16.0540541 19.7756757,16.5440562 19.7756757,17.1486486 Z" id="Path"></path>
                <path d="M24.1540541,17.1486486 C24.1540541,17.7532411 23.6640519,18.2432432 23.0594595,18.2432432 C22.454867,18.2432432 21.9648649,17.7532411 21.9648649,17.1486486 C21.9648649,16.5440562 22.454867,16.0540541 23.0594595,16.0540541 C23.6640519,16.0540541 24.1540541,16.5440562 24.1540541,17.1486486 Z" id="Path"></path>
                <path d="M28.5324324,17.1486486 C28.5324324,17.7532411 28.0424303,18.2432432 27.4378378,18.2432432 C26.8332454,18.2432432 26.3432432,17.7532411 26.3432432,17.1486486 C26.3432432,16.5440562 26.8332454,16.0540541 27.4378378,16.0540541 C28.0424303,16.0540541 28.5324324,16.5440562 28.5324324,17.1486486 Z" id="Path"></path>
                <path d="M32.9108108,17.1486486 C32.9108108,17.7532411 32.4208087,18.2432432 31.8162162,18.2432432 C31.2116238,18.2432432 30.7216216,17.7532411 30.7216216,17.1486486 C30.7216216,16.5440562 31.2116238,16.0540541 31.8162162,16.0540541 C32.4208087,16.0540541 32.9108108,16.5440562 32.9108108,17.1486486 Z" id="Path"></path>
                <path d="M8.82972973,21.527027 C8.82972973,22.1316195 8.3397276,22.6216216 7.73513514,22.6216216 C7.13054267,22.6216216 6.64054054,22.1316195 6.64054054,21.527027 C6.64054054,20.9224346 7.13054267,20.4324324 7.73513514,20.4324324 C8.3397276,20.4324324 8.82972973,20.9224346 8.82972973,21.527027 Z" id="Path"></path>
                <path d="M30.7216216,21.527027 C30.7216216,22.1316195 30.2316195,22.6216216 29.627027,22.6216216 C29.0224346,22.6216216 28.5324324,22.1316195 28.5324324,21.527027 C28.5324324,20.9224346 29.0224346,20.4324324 29.627027,20.4324324 C30.2316195,20.4324324 30.7216216,20.9224346 30.7216216,21.527027 Z" id="Path"></path>
                <path d="M6.64054054,12.7702703 C6.64054054,13.3748627 6.15053841,13.8648649 5.54594595,13.8648649 C4.94135348,13.8648649 4.45135135,13.3748627 4.45135135,12.7702703 C4.45135135,12.1656778 4.94135348,11.6756757 5.54594595,11.6756757 C6.15053841,11.6756757 6.64054054,12.1656778 6.64054054,12.7702703 Z" id="Path"></path>
                <path d="M11.0189189,12.7702703 C11.0189189,13.3748627 10.5289168,13.8648649 9.92432432,13.8648649 C9.31973186,13.8648649 8.82972973,13.3748627 8.82972973,12.7702703 C8.82972973,12.1656778 9.31973186,11.6756757 9.92432432,11.6756757 C10.5289168,11.6756757 11.0189189,12.1656778 11.0189189,12.7702703 Z" id="Path"></path>
                <path d="M15.3972973,12.7702703 C15.3972973,13.3748627 14.9072952,13.8648649 14.3027027,13.8648649 C13.6981102,13.8648649 13.2081081,13.3748627 13.2081081,12.7702703 C13.2081081,12.1656778 13.6981102,11.6756757 14.3027027,11.6756757 C14.9072952,11.6756757 15.3972973,12.1656778 15.3972973,12.7702703 Z" id="Path"></path>
                <path d="M19.7756757,12.7702703 C19.7756757,13.3748627 19.2856735,13.8648649 18.6810811,13.8648649 C18.0764886,13.8648649 17.5864865,13.3748627 17.5864865,12.7702703 C17.5864865,12.1656778 18.0764886,11.6756757 18.6810811,11.6756757 C19.2856735,11.6756757 19.7756757,12.1656778 19.7756757,12.7702703 Z" id="Path"></path>
                <path d="M24.1540541,12.7702703 C24.1540541,13.3748627 23.6640519,13.8648649 23.0594595,13.8648649 C22.454867,13.8648649 21.9648649,13.3748627 21.9648649,12.7702703 C21.9648649,12.1656778 22.454867,11.6756757 23.0594595,11.6756757 C23.6640519,11.6756757 24.1540541,12.1656778 24.1540541,12.7702703 Z" id="Path"></path>
                <path d="M28.5324324,12.7702703 C28.5324324,13.3748627 28.0424303,13.8648649 27.4378378,13.8648649 C26.8332454,13.8648649 26.3432432,13.3748627 26.3432432,12.7702703 C26.3432432,12.1656778 26.8332454,11.6756757 27.4378378,11.6756757 C28.0424303,11.6756757 28.5324324,12.1656778 28.5324324,12.7702703 Z" id="Path"></path>
                <path d="M32.9108108,12.7702703 C32.9108108,13.3748627 32.4208087,13.8648649 31.8162162,13.8648649 C31.2116238,13.8648649 30.7216216,13.3748627 30.7216216,12.7702703 C30.7216216,12.1656778 31.2116238,11.6756757 31.8162162,11.6756757 C32.4208087,11.6756757 32.9108108,12.1656778 32.9108108,12.7702703 Z" id="Path"></path>
                <path d="M11.0189189,21.527027 C11.0189189,22.1316195 11.508921,22.6216216 12.1135135,22.6216216 L25.2486486,22.6216216 C25.8532411,22.6216216 26.3432432,22.1316195 26.3432432,21.527027 C26.3432432,20.9224346 25.8532411,20.4324324 25.2486486,20.4324324 L12.1135135,20.4324324 C11.508921,20.4324324 11.0189189,20.9224346 11.0189189,21.527027 Z" id="Path"></path>
            </g>
        </g>
    </g>
</svg>