<?xml version="1.0" encoding="UTF-8"?>
<svg width="31px" height="37px" viewBox="0 0 31 37" version="1.1" xmlns="http://www.w3.org/2000/svg" xmlns:xlink="http://www.w3.org/1999/xlink">
    <!-- Generator: sketchtool 55.1 (78136) - https://sketchapp.com -->
    <title>E0FA8643-6E85-4812-A3A1-FB1E8F0595FB</title>
    <desc>Created with sketchtool.</desc>
    <g id="📜-Landing-page" stroke="none" stroke-width="1" fill="none" fill-rule="evenodd">
        <g id="landing-page" transform="translate(-458.000000, -2184.000000)" fill="#F86B27" fill-rule="nonzero">
            <g id="Reading" transform="translate(65.000000, 2148.000000)">
                <g id="icon" transform="translate(393.000000, 36.000000)">
                    <path d="M19.9183333,24.0365833 C20.6118333,22.8775833 21.6315,22.2838333 22.9836667,22.268 C24.3358333,22.2521667 25.01825,21.5634167 25.0404167,20.2080833 C25.0594167,18.8590833 25.6468333,17.8394167 26.8058333,17.1490833 C27.968,16.4555833 28.21975,15.523 27.5579167,14.3418333 C26.89925,13.1638333 26.89925,11.9858333 27.5579167,10.8046667 C28.21975,9.62666667 27.9695833,8.69566667 26.8058333,8.00216667 C25.6468333,7.30708333 25.0578333,6.289 25.0404167,4.93366667 C25.01825,3.58466667 24.3358333,2.89591667 22.9836667,2.88008333 C21.6315,2.86108333 20.6118333,2.2705 19.9183333,1.1115 C19.2248333,-0.0506666667 18.29225,-0.302416667 17.11425,0.359416667 C15.93625,1.01808333 14.7550833,1.01808333 13.5770833,0.359416667 C12.3975,-0.300833333 11.4649167,-0.0506666667 10.7714167,1.1115 C10.0795,2.27208333 9.05825,2.86266667 7.70766667,2.88008333 C6.35866667,2.89591667 5.67308333,3.58466667 5.65408333,4.93366667 C5.63191667,6.289 5.0445,7.3055 3.8855,8.00216667 C2.72333333,8.69566667 2.46841667,9.62508333 3.13341667,10.8046667 C3.79525,11.9858333 3.79525,13.1638333 3.13341667,14.3418333 C2.46841667,15.523 2.72175,16.4571667 3.8855,17.1490833 C5.0445,17.8394167 5.6335,18.8590833 5.65408333,20.2080833 C5.67308333,21.5618333 6.35866667,22.2521667 7.70766667,22.268 C9.05983333,22.2838333 10.0795,22.8775833 10.773,24.0365833 C11.4665,25.19875 12.3990833,25.4505 13.5770833,24.7855 C14.7550833,24.1331667 15.93625,24.1331667 17.11425,24.7855 C18.29225,25.4489167 19.2264167,25.19875 19.9183333,24.0365833 Z M15.3488333,19.9721667 C11.2606667,19.9721667 7.94833333,16.6598333 7.94833333,12.5716667 C7.94833333,8.48666667 11.2606667,5.17433333 15.3488333,5.17433333 C19.4338333,5.17433333 22.7461667,8.48666667 22.7461667,12.5716667 C22.7461667,16.6598333 19.4338333,19.9721667 15.3488333,19.9721667 Z" id="Shape"></path>
                    <path d="M7.58891667,23.3525833 C6.16708333,23.3525833 5.97708333,22.69075 5.97708333,22.69075 L0.424333333,33.6046667 L4.87666667,33.1043333 L7.33875,36.8093333 C7.33875,36.8093333 12.46875,26.106 12.46875,26.17725 C9.81033333,26.11075 10.868,23.4238333 7.58891667,23.3525833 Z" id="Path"></path>
                    <path d="M24.6414167,23.11825 C20.5849167,23.5425833 21.4098333,24.5495833 20.482,25.33175 C19.4148333,26.4701667 18.0816667,26.2469167 18.0816667,26.2469167 L24.34375,37.0215 L25.8843333,33.0315 L30.2638333,33.6030833 L24.6414167,23.11825 Z" id="Path"></path>
                    <polygon id="Path" points="16.8941667 10.93925 15.3456667 7.80425 13.7955833 10.93925 10.3296667 11.4459167 12.8345 13.889 12.2439167 17.3438333 15.3456667 15.7145833 18.4474167 17.3438333 17.8568333 13.889 20.3616667 11.4459167"></polygon>
                </g>
            </g>
        </g>
    </g>
</svg>